HIERARCHY
ROOT mixamorig:Hips
{
	OFFSET 0.000000 104.274902 0.000000
	CHANNELS 6 Xposition Yposition Zposition Xrotation Yrotation Zrotation
	JOINT mixamorig:Spine
	{
		OFFSET 0.000000 10.181549 0.131524
		CHANNELS 6 Xposition Yposition Zposition Xrotation Yrotation Zrotation
		JOINT mixamorig:Spine1
		{
			OFFSET 0.000000 9.893990 -1.470706
			CHANNELS 3 Xrotation Yrotation Zrotation
			JOINT mixamorig:Spine2
			{
				OFFSET 0.000000 9.220787 -1.370637
				CHANNELS 3 Xrotation Yrotation Zrotation
				JOINT mixamorig:Neck
				{
					OFFSET 0.000000 16.740372 -2.049022
					CHANNELS 6 Xposition Yposition Zposition Xrotation Yrotation Zrotation
					JOINT mixamorig:Head
					{
						OFFSET 0.000000 9.617859 1.684976
						CHANNELS 6 Xposition Yposition Zposition Xrotation Yrotation Zrotation
						JOINT mixamorig:HeadTop_End
						{
							OFFSET 0.000000 22.037384 7.501072
							CHANNELS 6 Xposition Yposition Zposition Xrotation Yrotation Zrotation
							End Site
							{
								OFFSET 0.000000 23.106567 -2.828246
							}
						}
					}
				}
				JOINT mixamorig:RightShoulder
				{
					OFFSET -4.570000 11.014877 -2.160840
					CHANNELS 6 Xposition Yposition Zposition Xrotation Yrotation Zrotation
					JOINT mixamorig:RightArm
					{
						OFFSET -10.592867 -0.524796 -2.232105
						CHANNELS 3 Xrotation Yrotation Zrotation
						JOINT mixamorig:RightForeArm
						{
							OFFSET -27.841497 0.000000 -0.000002
							CHANNELS 3 Xrotation Yrotation Zrotation
							JOINT mixamorig:RightHand
							{
								OFFSET -28.328812 0.000000 -0.000001
								CHANNELS 3 Xrotation Yrotation Zrotation
								JOINT mixamorig:RightHandThumb1
								{
									OFFSET -2.464798 -1.573990 2.681911
									CHANNELS 6 Xposition Yposition Zposition Xrotation Yrotation Zrotation
									JOINT mixamorig:RightHandThumb2
									{
										OFFSET -3.244781 -1.873383 1.873376
										CHANNELS 3 Xrotation Yrotation Zrotation
										JOINT mixamorig:RightHandThumb3
										{
											OFFSET -2.646263 -1.527817 1.527818
											CHANNELS 6 Xposition Yposition Zposition Xrotation Yrotation Zrotation
											JOINT mixamorig:RightHandThumb4
											{
												OFFSET -1.994591 -1.151581 1.151575
												CHANNELS 6 Xposition Yposition Zposition Xrotation Yrotation Zrotation
												End Site
												{
													OFFSET -1.860176 -1.142715 1.365483
												}
											}
										}
									}
								}
								JOINT mixamorig:RightHandIndex1
								{
									OFFSET -9.108299 -0.517883 2.259803
									CHANNELS 6 Xposition Yposition Zposition Xrotation Yrotation Zrotation
									JOINT mixamorig:RightHandIndex2
									{
										OFFSET -3.699997 0.000000 0.000000
										CHANNELS 3 Xrotation Yrotation Zrotation
										JOINT mixamorig:RightHandIndex3
										{
											OFFSET -2.850006 0.000000 0.000000
											CHANNELS 3 Xrotation Yrotation Zrotation
											JOINT mixamorig:RightHandIndex4
											{
												OFFSET -2.772194 0.000000 0.000000
												CHANNELS 3 Xrotation Yrotation Zrotation
												End Site
												{
													OFFSET -2.772202 0.000000 -0.000484
												}
											}
										}
									}
								}
								JOINT mixamorig:RightHandMiddle1
								{
									OFFSET -9.532501 0.000000 -0.000000
									CHANNELS 6 Xposition Yposition Zposition Xrotation Yrotation Zrotation
									JOINT mixamorig:RightHandMiddle2
									{
										OFFSET -3.699997 0.000000 0.000000
										CHANNELS 3 Xrotation Yrotation Zrotation
										JOINT mixamorig:RightHandMiddle3
										{
											OFFSET -2.949997 0.000000 0.000000
											CHANNELS 3 Xrotation Yrotation Zrotation
											JOINT mixamorig:RightHandMiddle4
											{
												OFFSET -2.946594 0.000000 0.000000
												CHANNELS 3 Xrotation Yrotation Zrotation
												End Site
												{
													OFFSET -2.946602 0.000000 -0.000982
												}
											}
										}
									}
								}
								JOINT mixamorig:RightHandRing1
								{
									OFFSET -9.103600 -0.043106 -1.865100
									CHANNELS 6 Xposition Yposition Zposition Xrotation Yrotation Zrotation
									JOINT mixamorig:RightHandRing2
									{
										OFFSET -3.379303 0.000000 0.000000
										CHANNELS 3 Xrotation Yrotation Zrotation
										JOINT mixamorig:RightHandRing3
										{
											OFFSET -2.889694 0.000000 0.000000
											CHANNELS 3 Xrotation Yrotation Zrotation
											JOINT mixamorig:RightHandRing4
											{
												OFFSET -2.638802 0.000000 0.000000
												CHANNELS 3 Xrotation Yrotation Zrotation
												End Site
												{
													OFFSET -2.638802 0.000000 0.004218
												}
											}
										}
									}
								}
								JOINT mixamorig:RightHandPinky1
								{
									OFFSET -8.076698 -0.486725 -3.806299
									CHANNELS 6 Xposition Yposition Zposition Xrotation Yrotation Zrotation
									JOINT mixamorig:RightHandPinky2
									{
										OFFSET -3.600006 0.000000 0.000000
										CHANNELS 3 Xrotation Yrotation Zrotation
										JOINT mixamorig:RightHandPinky3
										{
											OFFSET -2.099998 0.000000 0.000000
											CHANNELS 3 Xrotation Yrotation Zrotation
											JOINT mixamorig:RightHandPinky4
											{
												OFFSET -2.115791 0.000000 0.000000
												CHANNELS 3 Xrotation Yrotation Zrotation
												End Site
												{
													OFFSET -2.115799 0.000000 0.000174
												}
											}
										}
									}
								}
							}
						}
					}
				}
				JOINT mixamorig:LeftShoulder
				{
					OFFSET 4.570400 11.014679 -2.160816
					CHANNELS 6 Xposition Yposition Zposition Xrotation Yrotation Zrotation
					JOINT mixamorig:LeftArm
					{
						OFFSET 10.592373 -0.524597 -2.232116
						CHANNELS 3 Xrotation Yrotation Zrotation
						JOINT mixamorig:LeftForeArm
						{
							OFFSET 27.841488 0.000000 0.000001
							CHANNELS 3 Xrotation Yrotation Zrotation
							JOINT mixamorig:LeftHand
							{
								OFFSET 28.328808 0.000000 -0.000000
								CHANNELS 3 Xrotation Yrotation Zrotation
								JOINT mixamorig:LeftHandThumb1
								{
									OFFSET 2.466103 -1.576202 2.681698
									CHANNELS 6 Xposition Yposition Zposition Xrotation Yrotation Zrotation
									JOINT mixamorig:LeftHandThumb2
									{
										OFFSET 3.243317 -1.872528 1.872530
										CHANNELS 3 Xrotation Yrotation Zrotation
										JOINT mixamorig:LeftHandThumb3
										{
											OFFSET 2.647881 -1.528763 1.528754
											CHANNELS 6 Xposition Yposition Zposition Xrotation Yrotation Zrotation
											JOINT mixamorig:LeftHandThumb4
											{
												OFFSET 1.998924 -1.154083 1.154080
												CHANNELS 6 Xposition Yposition Zposition Xrotation Yrotation Zrotation
												End Site
												{
													OFFSET 1.884041 -1.149155 1.337651
												}
											}
										}
									}
								}
								JOINT mixamorig:LeftHandIndex1
								{
									OFFSET 9.109299 -0.518005 2.259900
									CHANNELS 6 Xposition Yposition Zposition Xrotation Yrotation Zrotation
									JOINT mixamorig:LeftHandIndex2
									{
										OFFSET 3.699997 0.000000 0.000000
										CHANNELS 3 Xrotation Yrotation Zrotation
										JOINT mixamorig:LeftHandIndex3
										{
											OFFSET 2.850006 0.000000 0.000000
											CHANNELS 3 Xrotation Yrotation Zrotation
											JOINT mixamorig:LeftHandIndex4
											{
												OFFSET 2.774895 0.000000 0.000000
												CHANNELS 3 Xrotation Yrotation Zrotation
												End Site
												{
													OFFSET 2.774902 0.000000 -0.000072
												}
											}
										}
									}
								}
								JOINT mixamorig:LeftHandMiddle1
								{
									OFFSET 9.533401 0.000000 0.000000
									CHANNELS 6 Xposition Yposition Zposition Xrotation Yrotation Zrotation
									JOINT mixamorig:LeftHandMiddle2
									{
										OFFSET 3.699997 0.000000 0.000000
										CHANNELS 3 Xrotation Yrotation Zrotation
										JOINT mixamorig:LeftHandMiddle3
										{
											OFFSET 2.949997 0.000000 0.000000
											CHANNELS 3 Xrotation Yrotation Zrotation
											JOINT mixamorig:LeftHandMiddle4
											{
												OFFSET 2.952896 0.000000 0.000000
												CHANNELS 3 Xrotation Yrotation Zrotation
												End Site
												{
													OFFSET 2.952904 0.000000 0.000165
												}
											}
										}
									}
								}
								JOINT mixamorig:LeftHandRing1
								{
									OFFSET 9.104500 -0.042999 -1.865101
									CHANNELS 6 Xposition Yposition Zposition Xrotation Yrotation Zrotation
									JOINT mixamorig:LeftHandRing2
									{
										OFFSET 3.149994 0.000000 0.000000
										CHANNELS 3 Xrotation Yrotation Zrotation
										JOINT mixamorig:LeftHandRing3
										{
											OFFSET 2.950005 0.000000 0.000000
											CHANNELS 3 Xrotation Yrotation Zrotation
											JOINT mixamorig:LeftHandRing4
											{
												OFFSET 2.644302 0.000000 0.000000
												CHANNELS 3 Xrotation Yrotation Zrotation
												End Site
												{
													OFFSET 2.644302 0.000000 0.000083
												}
											}
										}
									}
								}
								JOINT mixamorig:LeftHandPinky1
								{
									OFFSET 8.077805 -0.486893 -3.806302
									CHANNELS 6 Xposition Yposition Zposition Xrotation Yrotation Zrotation
									JOINT mixamorig:LeftHandPinky2
									{
										OFFSET 3.600006 0.000000 0.000000
										CHANNELS 3 Xrotation Yrotation Zrotation
										JOINT mixamorig:LeftHandPinky3
										{
											OFFSET 2.099998 0.000000 0.000000
											CHANNELS 3 Xrotation Yrotation Zrotation
											JOINT mixamorig:LeftHandPinky4
											{
												OFFSET 2.125496 0.000000 0.000000
												CHANNELS 3 Xrotation Yrotation Zrotation
												End Site
												{
													OFFSET 2.125504 0.000000 -0.001254
												}
											}
										}
									}
								}
							}
						}
					}
				}
			}
		}
	}
	JOINT mixamorig:RightUpLeg
	{
		OFFSET -8.207800 -6.751701 -1.599544
		CHANNELS 6 Xposition Yposition Zposition Xrotation Yrotation Zrotation
		JOINT mixamorig:RightLeg
		{
			OFFSET 0.000004 -44.370152 0.345934
			CHANNELS 3 Xrotation Yrotation Zrotation
			JOINT mixamorig:RightFoot
			{
				OFFSET 0.000004 -44.423664 -3.043535
				CHANNELS 3 Xrotation Yrotation Zrotation
				JOINT mixamorig:RightToeBase
				{
					OFFSET 0.000001 -8.728691 10.710592
					CHANNELS 3 Xrotation Yrotation Zrotation
					JOINT mixamorig:RightToe_End
					{
						OFFSET 0.000000 -0.000665 9.278101
						CHANNELS 3 Xrotation Yrotation Zrotation
						End Site
						{
							OFFSET 0.000000 -0.000665 9.278103
						}
					}
				}
			}
		}
	}
	JOINT mixamorig:LeftUpLeg
	{
		OFFSET 8.207800 -6.751701 -1.599544
		CHANNELS 6 Xposition Yposition Zposition Xrotation Yrotation Zrotation
		JOINT mixamorig:LeftLeg
		{
			OFFSET 0.000004 -44.370037 0.346940
			CHANNELS 3 Xrotation Yrotation Zrotation
			JOINT mixamorig:LeftFoot
			{
				OFFSET 0.000004 -44.423611 -3.044388
				CHANNELS 3 Xrotation Yrotation Zrotation
				JOINT mixamorig:LeftToeBase
				{
					OFFSET 0.000001 -8.728690 10.710592
					CHANNELS 3 Xrotation Yrotation Zrotation
					JOINT mixamorig:LeftToe_End
					{
						OFFSET 0.000000 -0.000680 9.278101
						CHANNELS 3 Xrotation Yrotation Zrotation
						End Site
						{
							OFFSET 0.000000 -0.000680 9.278101
						}
					}
				}
			}
		}
	}
}
MOTION
Frames: 4
Frame Time: 0.033333
4.504381 154.544830 97.729652 46.198143 3.794260 -0.142557 0.000002 10.181560 0.131520 10.866600 -3.844906 -3.570632 0.510809 -0.727303 2.032351 0.533830 -0.676275 2.046263 -0.000002 16.740360 -2.049026 -16.783114 0.285574 -5.819056 0.000002 9.617865 1.684983 -31.154439 -8.869557 7.901089 -0.000001 22.037399 7.501061 -0.000001 -0.000000 -0.000000 -4.570004 11.014859 -2.160825 0.532220 5.071959 13.648768 -45.420208 16.438418 42.010233 0.000107 136.634123 -0.000047 61.576778 -18.265399 14.376382 -2.464803 -1.573992 2.681908 -1.257531 0.666062 0.529805 -5.462567 -10.016534 -1.921165 -2.646276 -1.527825 1.527816 -3.586703 6.164829 -7.759861 -1.994567 -1.151616 1.151577 0.000004 -0.000000 -0.000000 -9.108288 -0.517866 2.259804 -0.002833 1.597085 0.198874 0.178754 -1.569579 12.993802 0.012962 -0.425255 3.491635 0.000000 0.000006 0.000000 -9.532495 -0.000007 -0.000001 0.000304 0.175740 -0.093217 0.238081 -1.807436 15.006964 0.062321 -0.909731 7.489737 -0.000000 0.000000 0.000000 -9.103613 -0.043092 -1.865108 0.039788 -1.024484 2.594783 0.260235 -1.888094 15.693987 0.035600 -0.997954 8.175116 0.000000 0.000001 -0.000000 -8.076677 -0.486719 -3.806298 0.158177 -1.771459 6.528620 0.137242 -1.377400 11.379384 0.003746 -0.228791 1.877567 0.000000 -0.000000 -0.000000 4.570401 11.014683 -2.160798 0.572253 -3.824840 -14.681889 -42.863617 -7.018539 -36.471564 0.000016 -136.962191 -0.000002 63.078122 15.613549 2.348508 2.466126 -1.576229 2.681700 -6.256702 5.698563 7.394686 5.771030 14.502768 -0.848868 2.647887 -1.528763 1.528754 -4.017590 -7.143286 3.675327 1.998932 -1.154117 1.154088 -0.000000 0.000000 -0.000000 9.109322 -0.518020 2.259900 0.393286 2.982458 -9.095821 0.583102 2.777870 -23.706752 0.059077 0.901977 -7.496034 -0.000000 0.000000 -0.000000 9.533435 -0.000003 -0.000001 0.090337 1.663699 -3.479578 0.656493 2.939164 -25.178550 0.125538 1.311520 -10.935710 -0.000000 -0.000000 -0.000000 9.104548 -0.042983 -1.865101 0.018107 0.841810 -12.592061 0.708058 3.046272 -26.166105 0.149491 1.429908 -11.937175 0.000000 -0.000000 0.000001 8.077844 -0.486895 -3.806305 0.952101 5.229384 -11.690322 0.545984 -1.379818 -23.286287 0.045908 0.795493 -6.606752 0.000001 -0.000001 0.000001 -8.207800 -6.751721 -1.599544 -30.104711 -13.664246 -18.324785 32.351662 -3.102895 2.614005 11.638338 0.856710 15.723760 0.799432 -0.000007 0.000010 0.000000 -0.000001 -0.000002 8.207801 -6.751704 -1.599541 -28.977689 9.966490 10.438226 17.003893 10.152166 -1.813538 13.577218 1.180758 -10.790578 5.664902 0.000008 -0.000006 -0.000001 -0.000003 0.000000 
4.464658 154.540588 97.699127 46.106840 3.813837 -0.232431 -0.000000 10.181550 0.131518 10.907736 -3.837958 -3.562086 0.520379 -0.727027 2.041345 0.543433 -0.675545 2.055231 0.000000 16.740372 -2.048995 -16.702596 0.297822 -5.898161 0.000003 9.617855 1.684983 -31.192210 -8.907447 7.832776 0.000002 22.037384 7.501079 -0.000000 -0.000000 0.000000 -4.569995 11.014879 -2.160825 0.531488 5.089235 13.657627 -45.389489 16.404193 41.984063 0.000102 136.516261 -0.000044 61.598382 -18.319076 14.229558 -2.464801 -1.573999 2.681908 -1.257530 0.666064 0.529804 -5.462567 -10.016536 -1.921163 -2.646271 -1.527830 1.527825 -3.586709 6.164834 -7.759862 -1.994580 -1.151548 1.151574 0.000003 -0.000003 -0.000001 -9.108304 -0.517901 2.259798 -0.002830 1.597078 0.198853 0.178760 -1.569595 12.993806 0.012963 -0.425260 3.491637 -0.000000 0.000001 0.000000 -9.532509 0.000010 -0.000003 0.000309 0.175731 -0.093229 0.238081 -1.807422 15.006969 0.062312 -0.909720 7.489725 -0.000000 0.000000 0.000000 -9.103614 -0.043128 -1.865105 0.039790 -1.024487 2.594762 0.260238 -1.888085 15.693983 0.035603 -0.997968 8.175129 0.000000 0.000000 -0.000001 -8.076698 -0.486729 -3.806303 0.158180 -1.771452 6.528595 0.137242 -1.377433 11.379400 0.003744 -0.228754 1.877558 0.000000 -0.000001 0.000001 4.570405 11.014688 -2.160782 0.569653 -3.887601 -14.639293 -42.951747 -7.127741 -36.603073 0.000008 -136.879231 0.000006 63.259081 15.592157 2.135674 2.466129 -1.576216 2.681708 -6.256702 5.698567 7.394684 5.771031 14.502766 -0.848871 2.647914 -1.528773 1.528763 -4.017593 -7.143288 3.675325 1.998948 -1.154068 1.154075 0.000000 0.000003 -0.000004 9.109317 -0.518020 2.259905 0.393285 2.982460 -9.095824 0.583106 2.777858 -23.706776 0.059078 0.901977 -7.496035 -0.000001 -0.000000 0.000000 9.533413 -0.000007 0.000003 0.090336 1.663699 -3.479579 0.656500 2.939145 -25.178563 0.125539 1.311520 -10.935708 0.000001 -0.000000 -0.000001 9.104523 -0.043017 -1.865100 0.018106 0.841809 -12.592062 0.708066 3.046289 -26.166110 0.149491 1.429907 -11.937173 0.000000 -0.000000 -0.000002 8.077834 -0.486910 -3.806301 0.952100 5.229383 -11.690323 0.545982 -1.379799 -23.286311 0.045908 0.795493 -6.606753 0.000001 -0.000001 0.000001 -8.207805 -6.751715 -1.599540 -30.110291 -13.687070 -18.279447 32.262122 -3.154827 2.651820 11.628634 0.853038 15.678505 0.781951 0.000001 0.000002 0.000001 -0.000001 -0.000001 8.207801 -6.751710 -1.599551 -28.961887 10.014041 10.482578 17.137834 10.154808 -1.848371 13.668262 1.284503 -10.766260 5.674861 0.000002 0.000002 0.000001 -0.000001 0.000001 
4.429815 154.547455 97.679764 46.020257 3.821351 -0.292008 -0.000000 10.181562 0.131526 10.939997 -3.848401 -3.591375 0.525387 -0.729318 2.053392 0.548677 -0.677336 2.067329 -0.000001 16.740387 -2.049015 -16.579878 0.305403 -5.890132 -0.000000 9.617850 1.685002 -31.255984 -8.829510 7.742805 -0.000001 22.037369 7.501076 -0.000000 0.000000 -0.000000 -4.569998 11.014860 -2.160832 0.530225 5.119548 13.672834 -45.300721 16.379904 41.969525 0.000114 136.402347 -0.000045 61.632055 -18.369234 14.059027 -2.464777 -1.574014 2.681911 -1.257529 0.666061 0.529807 -5.462569 -10.016533 -1.921160 -2.646265 -1.527825 1.527826 -3.586707 6.164831 -7.759858 -1.994572 -1.151567 1.151573 0.000004 0.000002 0.000002 -9.108263 -0.517914 2.259804 -0.002835 1.597081 0.198852 0.178759 -1.569588 12.993815 0.012960 -0.425252 3.491625 -0.000000 -0.000000 0.000000 -9.532471 -0.000010 0.000003 0.000311 0.175732 -0.093223 0.238085 -1.807439 15.006957 0.062316 -0.909717 7.489737 -0.000000 0.000000 -0.000000 -9.103570 -0.043118 -1.865103 0.039789 -1.024492 2.594766 0.260235 -1.888077 15.693982 0.035602 -0.997980 8.175123 0.000000 -0.000000 -0.000001 -8.076681 -0.486737 -3.806300 0.158186 -1.771479 6.528593 0.137237 -1.377402 11.379411 0.003751 -0.228782 1.877544 0.000000 0.000000 0.000000 4.570402 11.014690 -2.160809 0.568659 -3.916228 -14.584149 -42.973501 -7.191252 -36.695663 0.000017 -136.780521 0.000012 63.381253 15.581180 2.067576 2.466114 -1.576199 2.681702 -6.256700 5.698567 7.394687 5.771031 14.502768 -0.848868 2.647879 -1.528759 1.528756 -4.017591 -7.143286 3.675325 1.998944 -1.154083 1.154086 -0.000001 -0.000003 -0.000002 9.109322 -0.518018 2.259899 0.393286 2.982459 -9.095821 0.583101 2.777861 -23.706760 0.059077 0.901977 -7.496034 -0.000001 0.000000 0.000001 9.533422 0.000005 -0.000001 0.090337 1.663700 -3.479583 0.656502 2.939157 -25.178563 0.125538 1.311521 -10.935709 0.000000 0.000001 0.000001 9.104517 -0.043000 -1.865097 0.018106 0.841809 -12.592062 0.708059 3.046281 -26.166111 0.149491 1.429907 -11.937175 0.000001 -0.000000 0.000001 8.077819 -0.486882 -3.806298 0.952102 5.229383 -11.690324 0.545984 -1.379807 -23.286304 0.045909 0.795492 -6.606753 0.000001 0.000000 -0.000001 -8.207804 -6.751692 -1.599532 -30.155756 -13.703642 -18.277907 32.188110 -3.175558 2.686903 11.651568 0.854748 15.646749 0.772829 0.000001 0.000006 -0.000001 -0.000001 -0.000001 8.207799 -6.751694 -1.599529 -28.972600 10.043785 10.524088 17.221016 10.156741 -1.870076 13.716202 1.385156 -10.754030 5.663495 0.000003 0.000002 -0.000002 0.000001 -0.000000 
4.399730 154.562759 97.668457 45.941765 3.835029 -0.334336 0.000002 10.181556 0.131523 10.977010 -3.860717 -3.625292 0.530257 -0.731472 2.058731 0.553731 -0.679116 2.072728 -0.000002 16.740356 -2.049025 -16.467789 0.310119 -5.841263 0.000008 9.617827 1.685025 -31.328777 -8.709769 7.675916 0.000002 22.037354 7.501097 -0.000001 0.000000 -0.000000 -4.569999 11.014866 -2.160849 0.528437 5.155470 13.707233 -45.210030 16.359174 41.948816 0.000106 136.325412 -0.000047 61.677496 -18.433589 13.904439 -2.464784 -1.574016 2.681907 -1.257529 0.666059 0.529804 -5.462568 -10.016533 -1.921161 -2.646269 -1.527815 1.527801 -3.586707 6.164837 -7.759860 -1.994568 -1.151566 1.151568 0.000001 -0.000004 -0.000000 -9.108272 -0.517899 2.259800 -0.002833 1.597065 0.198862 0.178757 -1.569585 12.993820 0.012962 -0.425243 3.491623 0.000000 0.000004 -0.000000 -9.532475 -0.000002 -0.000004 0.000308 0.175716 -0.093202 0.238079 -1.807420 15.006957 0.062315 -0.909718 7.489727 -0.000000 0.000001 0.000000 -9.103588 -0.043129 -1.865107 0.039792 -1.024513 2.594784 0.260228 -1.888053 15.693975 0.035600 -0.997940 8.175125 0.000000 -0.000000 -0.000000 -8.076690 -0.486733 -3.806307 0.158184 -1.771473 6.528621 0.137233 -1.377416 11.379379 0.003755 -0.228782 1.877552 -0.000000 0.000000 -0.000000 4.570403 11.014683 -2.160833 0.568500 -3.925994 -14.518354 -42.981557 -7.226618 -36.750485 0.000021 -136.689174 0.000009 63.406736 15.574409 2.048239 2.466130 -1.576214 2.681706 -6.256699 5.698565 7.394687 5.771031 14.502768 -0.848864 2.647906 -1.528766 1.528757 -4.017591 -7.143285 3.675329 1.998917 -1.154085 1.154083 0.000001 0.000004 0.000003 9.109321 -0.518005 2.259907 0.393286 2.982460 -9.095822 0.583097 2.777856 -23.706752 0.059077 0.901976 -7.496035 -0.000001 0.000000 -0.000001 9.533421 0.000011 0.000007 0.090337 1.663698 -3.479578 0.656492 2.939133 -25.178579 0.125538 1.311521 -10.935709 -0.000000 0.000000 0.000000 9.104525 -0.043002 -1.865093 0.018106 0.841808 -12.592058 0.708058 3.046276 -26.166120 0.149491 1.429908 -11.937174 0.000000 0.000000 0.000002 8.077857 -0.486897 -3.806301 0.952101 5.229382 -11.690321 0.545984 -1.379803 -23.286316 0.045909 0.795493 -6.606754 -0.000000 -0.000001 0.000001 -8.207804 -6.751724 -1.599540 -30.225739 -13.713196 -18.301111 32.136228 -3.202274 2.717074 11.657543 0.855915 15.648290 0.784136 0.000003 -0.000001 -0.000000 -0.000002 -0.000001 8.207802 -6.751709 -1.599548 -29.020521 10.048783 10.574555 17.252650 10.158644 -1.874481 13.726450 1.389036 -10.767407 5.677054 0.000007 -0.000004 -0.000000 -0.000000 0.000001 
